<svg width="150" height="41" viewBox="0 0 150 41" fill="none" xmlns="http://www.w3.org/2000/svg">
<g clip-path="url(#clip0)">
<path fill-rule="evenodd" clip-rule="evenodd" d="M28.4562 28.4603C32.5567 32.5608 39.205 32.5608 43.3055 28.4603C47.406 24.3598 47.406 17.7115 43.3055 13.611C39.205 9.51052 32.5567 9.51052 28.4562 13.611C24.3557 17.7115 24.3557 24.3597 28.4562 28.4603ZM23.5065 33.41C30.3407 40.2442 41.421 40.2442 48.2552 33.41C55.0894 26.5758 55.0894 15.4954 48.2552 8.66128C41.421 1.8271 30.3406 1.8271 23.5065 8.66128C16.6723 15.4954 16.6723 26.5758 23.5065 33.41Z" fill="white"/>
<path d="M21.0279 6.1851L16.0782 1.23535L1.27734 16.0362V26.0326L16.0782 40.8334L21.0279 35.8836L6.17863 21.0344L21.0279 6.1851Z" fill="white"/>
</g>
<path d="M44.4141 25.0816C44.4141 31.5316 49.0581 36.2186 55.4221 36.2186C61.6571 36.2186 64.7101 32.0476 65.6561 28.0486L61.6571 27.2746C61.0981 29.9836 59.4641 32.5206 55.4221 32.5206C51.2941 32.5206 48.4561 29.5536 48.4561 25.0816C48.4561 20.6096 51.2941 17.6426 55.3361 17.6426C59.0771 17.6426 61.2701 19.9646 61.6141 22.9316L65.5701 22.1146C64.7101 17.4276 61.0121 13.9446 55.3361 13.9446C49.0581 13.9446 44.4141 18.6316 44.4141 25.0816Z" fill="white"/>
<path d="M67.5696 20.0936L71.0526 21.6846C72.0416 19.2336 74.0626 17.5566 77.5026 17.5566C80.9426 17.5566 82.9636 19.2766 82.9636 22.1576V22.7166L75.1806 23.4476C69.7626 23.9636 67.1396 26.0276 67.1396 29.8546C67.1396 33.6386 70.1926 36.2186 74.9226 36.2186C79.2656 36.2186 81.4586 34.1976 82.3616 32.3056H82.9636V35.6166H86.9196V22.3296C86.9196 17.2556 83.2646 13.9446 77.5886 13.9446C72.4286 13.9446 69.0746 16.8256 67.5696 20.0936ZM71.2246 29.6826C71.2246 27.5326 73.1596 26.8016 75.6106 26.5866L82.9636 25.8986V26.2426C82.9636 29.8976 80.5556 32.8646 75.6106 32.8646C72.8156 32.8646 71.2246 31.6606 71.2246 29.6826Z" fill="white"/>
<path d="M94.847 14.5466H90.977V35.6166H95.019V23.3186C95.019 20.1366 96.653 18.4166 99.663 18.4166H103.361V14.4606H100.953C97.9 14.4606 96.18 15.7506 95.449 17.9866H94.847V14.5466Z" fill="white"/>
<path d="M102.956 25.0816C102.956 31.6176 107.6 36.2186 113.792 36.2186C119.984 36.2186 124.628 31.6176 124.628 25.0816C124.628 18.5456 119.984 13.9446 113.792 13.9446C107.6 13.9446 102.956 18.5456 102.956 25.0816ZM106.998 25.0816C106.998 20.4376 109.75 17.6426 113.792 17.6426C117.834 17.6426 120.586 20.4376 120.586 25.0816C120.586 29.7256 117.834 32.5206 113.792 32.5206C109.75 32.5206 106.998 29.7256 106.998 25.0816Z" fill="white"/>
<path d="M127.556 5.5166V35.6166H131.512V32.3056H132.114C133.275 34.2406 135.21 36.2186 139.338 36.2186C144.885 36.2186 149.228 31.6176 149.228 25.0816C149.228 18.5456 144.885 13.9446 139.338 13.9446C135.21 13.9446 133.275 15.9226 132.114 17.8576H131.598V5.5166H127.556ZM138.306 17.5566C142.348 17.5566 145.186 20.2656 145.186 25.0816C145.186 29.8976 142.348 32.6066 138.306 32.6066C134.178 32.6066 131.598 29.7256 131.598 25.0816C131.598 20.4376 134.178 17.5566 138.306 17.5566Z" fill="white"/>
<defs>
<clipPath id="clip0">
<rect width="34" height="40" fill="white" transform="translate(0.414062 0.867676)"/>
</clipPath>
</defs>
</svg>
