<svg width="189" height="30" viewBox="0 0 189 30" fill="none" xmlns="http://www.w3.org/2000/svg">
<path d="M5.44953 16.6988V27.7248H0.269531V1.82478H15.2915V6.48679H5.44953V12.2588H14.9215V16.6988H5.44953Z" fill="white"/>
<path d="M34.5726 16.1808V23.2108H45.8946V27.7248H29.3926V1.82478H45.8946V6.33879H34.5726V11.7778H45.1546V16.1808H34.5726Z" fill="white"/>
<path d="M60.3584 1.82478H65.6864V23.0628H76.0094V27.7248H60.3584V1.82478Z" fill="white"/>
<path d="M88.2529 1.82478H93.5809V23.0628H103.904V27.7248H88.2529V1.82478Z" fill="white"/>
<path d="M113.547 14.7748C113.547 12.8138 113.88 11.0008 114.583 9.37278C115.249 7.74478 116.211 6.30178 117.469 5.11779C118.69 3.93379 120.133 2.97178 121.798 2.30578C123.463 1.63978 125.276 1.30678 127.237 1.30678C129.198 1.30678 131.011 1.63978 132.676 2.30578C134.304 2.97178 135.747 3.93379 137.005 5.11779C138.263 6.30178 139.225 7.74478 139.891 9.37278C140.557 11.0008 140.927 12.8138 140.927 14.7748C140.927 16.7358 140.557 18.5488 139.891 20.2138C139.225 21.8788 138.263 23.3218 137.042 24.5428C135.821 25.7638 134.378 26.7258 132.713 27.3918C131.048 28.0578 129.235 28.3908 127.237 28.3908C125.239 28.3908 123.389 28.0578 121.724 27.3918C120.059 26.7258 118.616 25.7638 117.395 24.5428C116.174 23.3218 115.212 21.8788 114.546 20.2138C113.88 18.5488 113.547 16.7358 113.547 14.7748ZM119.171 14.7748C119.171 16.4398 119.504 17.9198 120.207 19.1778C120.873 20.4728 121.835 21.4718 123.056 22.2118C124.24 22.9518 125.646 23.2848 127.237 23.2848C128.791 23.2848 130.197 22.9518 131.418 22.2118C132.602 21.4718 133.564 20.4728 134.267 19.1778C134.933 17.9198 135.303 16.4398 135.303 14.7748C135.303 13.1468 134.97 11.6668 134.304 10.3718C133.638 9.11378 132.676 8.11478 131.492 7.37479C130.271 6.63478 128.865 6.26478 127.237 6.26478C125.646 6.26478 124.24 6.63478 123.056 7.37479C121.835 8.11478 120.873 9.11378 120.207 10.3718C119.504 11.6668 119.171 13.1468 119.171 14.7748Z" fill="white"/>
<path d="M177.086 18.3268L182.451 1.82478H188.667L177.789 29.2048L169.612 12.2218L161.435 29.2048L150.557 1.82478H156.81L162.138 18.2898L169.612 0.529785L177.086 18.3268Z" fill="white"/>
</svg>
