<svg width="207" height="30" viewBox="0 0 207 30" fill="none" xmlns="http://www.w3.org/2000/svg">
<path d="M22.6871 14.8599C22.7271 11.8199 23.0071 4.2599 23.2471 1.0999L23.0471 0.899902C21.4871 1.0999 19.9671 1.0999 18.4071 0.899902L18.2071 1.0999C18.5271 3.7799 18.7271 9.8199 18.7671 13.4199C14.0871 14.9799 7.80711 11.7399 4.76711 16.1799V14.8599C4.80711 11.8199 5.08711 4.2599 5.32711 1.0999L5.12711 0.899902C3.56711 1.0599 2.04711 1.0599 0.487109 0.899902L0.287109 1.0999C0.647109 4.1799 0.847109 11.7799 0.847109 14.8599C0.847109 18.0599 0.647109 25.6599 0.287109 28.8999L0.487109 29.0999H5.12711L5.32711 28.8999C5.08711 26.4999 4.88711 21.6199 4.80711 17.9799C7.84711 13.8999 14.0871 16.7799 18.7671 15.2199C18.7671 18.5799 18.5671 25.7799 18.2071 28.8999L18.4071 29.0999H23.0471L23.2471 28.8999C22.9271 25.6599 22.6471 18.0599 22.6871 14.8599Z" fill="#131313"/>
<path d="M49.2652 1.0999L49.0652 0.899902C48.0652 1.0999 46.0652 1.0999 45.0652 0.899902L44.8652 1.0999C44.6652 2.1799 36.1052 25.6199 34.8652 28.8999L35.0652 29.0999H36.7052L36.9052 28.9399C37.2252 27.8599 38.3052 24.4199 39.6652 20.3399C41.7852 17.5799 47.4652 17.8199 50.9452 17.8199L55.0652 29.0999H59.0652L59.2652 28.8999C58.0252 25.6199 49.4652 2.1799 49.2652 1.0999ZM40.7452 17.0999C42.5052 11.9399 44.4252 6.4199 45.7052 3.4599L50.0652 15.4199C47.3852 15.4199 42.9052 15.2199 40.7452 17.0999Z" fill="#131313"/>
<path d="M82.5115 14.2199C82.3515 14.2199 82.1115 14.2199 81.9915 14.1799C81.4315 14.0599 81.7915 13.7399 81.9915 13.5799C82.2315 13.3799 82.3515 13.2999 82.5515 13.1799C86.9115 10.7799 87.5115 9.2199 87.5115 6.6999C87.5115 3.3799 84.7515 1.0999 79.3915 1.0999H70.4715L70.2715 1.2999C70.6315 4.3799 70.8315 11.7799 70.8315 14.8599C70.8315 18.0599 70.6315 25.6599 70.2715 28.8999L70.4715 29.0999C70.9515 29.0999 71.7915 29.0999 72.6715 29.0999H80.5915C86.4315 29.0999 89.5115 27.0999 89.5115 21.5399C89.5115 17.9399 88.3115 13.9399 82.5115 14.2199ZM79.3915 2.6999C81.5915 2.6999 83.1115 4.2999 83.1115 6.6999C83.1115 9.7399 82.6715 11.2199 74.7515 14.4199L74.9515 3.0999V2.6999H79.3915ZM80.5915 27.4999H74.7515V15.6599C81.8315 13.3799 85.1115 16.3399 85.1115 21.5399C85.1115 25.7399 83.2715 27.4999 80.5915 27.4999Z" fill="#131313"/>
<path d="M101.693 29.0999H106.333L106.533 28.8999C106.173 25.6599 105.973 18.2199 105.973 14.9799C105.973 11.9399 106.173 4.0599 106.533 1.1399L106.333 0.939902C105.333 1.1399 102.693 1.1399 101.693 0.939902L101.493 1.1399C101.853 4.3399 102.053 12.0599 102.053 14.9799C102.053 18.1799 101.853 25.6599 101.493 28.8999L101.693 29.0999Z" fill="#131313"/>
<path d="M143.914 1.2999L143.714 1.0999H119.754L119.554 1.2999L119.154 5.4999H119.754C120.554 3.4999 124.474 2.6999 126.434 2.6999C127.434 2.6999 128.474 2.6999 129.514 2.6599C129.794 6.0199 129.954 12.2199 129.954 14.9799C129.954 18.1799 129.754 25.6599 129.394 28.8999L129.594 29.0999H133.834L134.034 28.8999C133.674 25.6199 133.474 18.2199 133.474 14.9799C133.474 12.2599 133.634 6.0199 133.914 2.6999H137.034C138.994 2.6999 142.914 3.4999 143.714 5.4999H144.314L143.914 1.2999Z" fill="#131313"/>
<path d="M165.132 1.0999L164.932 0.899902C163.932 1.0999 161.932 1.0999 160.932 0.899902L160.732 1.0999C160.532 2.1799 151.972 25.6199 150.732 28.8999L150.932 29.0999H152.572L152.772 28.9399C153.092 27.8599 154.172 24.4199 155.532 20.3399C157.652 17.5799 163.332 17.8199 166.812 17.8199L170.932 29.0999H174.932L175.132 28.8999C173.892 25.6199 165.332 2.1799 165.132 1.0999ZM156.612 17.0999C158.372 11.9399 160.292 6.4199 161.572 3.4599L165.932 15.4199C163.252 15.4199 158.772 15.2199 156.612 17.0999Z" fill="#131313"/>
<path d="M205.696 1.2999L205.496 1.0999H181.536L181.336 1.2999L180.936 5.4999H181.536C182.336 3.4999 186.256 2.6999 188.216 2.6999C189.216 2.6999 190.256 2.6999 191.296 2.6599C191.576 6.0199 191.736 12.2199 191.736 14.9799C191.736 18.1799 191.536 25.6599 191.176 28.8999L191.376 29.0999H195.616L195.816 28.8999C195.456 25.6199 195.256 18.2199 195.256 14.9799C195.256 12.2599 195.416 6.0199 195.696 2.6999H198.816C200.776 2.6999 204.696 3.4999 205.496 5.4999H206.096L205.696 1.2999Z" fill="#131313"/>
</svg>
