<svg width="21" height="21" viewBox="0 0 21 21" fill="none" xmlns="http://www.w3.org/2000/svg">
<path d="M18.8863 4.19342C18.7045 4.19884 18.5319 4.27484 18.4051 4.40533L7.69999 15.1104L3.29491 10.7053C3.23041 10.6382 3.15315 10.5845 3.06766 10.5476C2.98217 10.5106 2.89016 10.4911 2.79704 10.4902C2.70391 10.4892 2.61153 10.5068 2.5253 10.542C2.43908 10.5773 2.36074 10.6293 2.29489 10.6952C2.22903 10.761 2.17698 10.8393 2.14178 10.9256C2.10658 11.0118 2.08893 11.1042 2.08988 11.1973C2.09083 11.2904 2.11035 11.3824 2.1473 11.4679C2.18425 11.5534 2.23788 11.6307 2.30506 11.6952L7.20506 16.5952C7.33634 16.7264 7.51437 16.8001 7.69999 16.8001C7.88561 16.8001 8.06363 16.7264 8.19491 16.5952L19.3949 5.39518C19.4961 5.29685 19.5651 5.17027 19.5931 5.032C19.6211 4.89374 19.6066 4.75025 19.5517 4.62034C19.4967 4.49043 19.4037 4.38016 19.285 4.30398C19.1663 4.2278 19.0273 4.18926 18.8863 4.19342Z" fill="#131313"/>
</svg>
