<svg width="42" height="42" viewBox="0 0 42 42" fill="none" xmlns="http://www.w3.org/2000/svg">
<path d="M20.9173 1.00263C19.7444 0.979154 18.5596 1.11286 17.3906 1.41022C16.9313 1.54147 16.5702 1.96854 16.603 2.42792C16.6358 3.05136 17.2595 3.47766 17.8501 3.3136C20.8361 2.5261 23.9533 3.01829 26.5454 4.6261C26.6439 4.69173 26.7095 4.82298 26.7095 4.95423C26.1189 8.16985 21.8203 11.5167 20.6719 11.5167C19.4578 11.5167 14.5689 7.64511 14.5689 4.23261C14.5689 3.90448 14.4044 3.60904 14.1747 3.44498C13.9122 3.2481 13.5844 3.21516 13.2891 3.3136L11.9766 3.74042C4.82344 5.97167 0 12.5012 0 20.0153C0 20.5403 0.426562 20.9997 0.984375 20.9997H7.54688C7.74375 20.9997 7.875 21.1309 7.875 21.3278V40.1623C7.875 40.7201 8.30156 41.1467 8.85938 41.1467H32.4844C33.0422 41.1467 33.4688 40.7201 33.4688 40.1623V21.3278C33.4688 21.1309 33.6 20.9997 33.7969 20.9997H40.3594C40.9172 20.9997 41.3438 20.5731 41.3438 20.0153C41.3438 12.5012 36.5203 5.97167 29.3672 3.74042L28.1861 3.37897C26.0204 1.86754 23.4978 1.05426 20.9173 1.00263ZM12.7642 5.54511C13.6829 9.54823 18.5063 13.5182 20.6719 13.5182C22.8375 13.5182 27.6608 9.58104 28.5796 5.54511L28.7763 5.61048C34.6826 7.44798 38.7846 12.5998 39.3096 18.6701C39.3424 18.867 39.1784 19.0309 38.9815 19.0309H33.7969C33.6 19.0309 33.4688 18.8997 33.4688 18.7028V16.1105C33.4688 15.6183 33.1405 15.1919 32.6811 15.0934C32.0577 14.995 31.5 15.4544 31.5 16.0778V38.8498C31.5 39.0467 31.3688 39.1779 31.1719 39.1779H10.1719C9.975 39.1779 9.84375 39.0467 9.84375 38.8498V16.1105C9.84375 15.6183 9.5155 15.1919 9.05612 15.0934C8.43268 14.995 7.875 15.4544 7.875 16.0778V18.7028C7.875 18.8997 7.74375 19.0309 7.54688 19.0309H2.36224C2.16537 19.0309 2.00131 18.867 2.03412 18.6701C2.55912 12.5998 6.66119 7.44798 12.5674 5.61048L12.7642 5.54511ZM26.5781 18.44C26.3712 18.44 26.1664 18.4807 25.9753 18.5599C25.7841 18.639 25.6105 18.7551 25.4642 18.9013C25.3179 19.0476 25.2019 19.2213 25.1227 19.4124C25.0436 19.6036 25.0028 19.8084 25.0029 20.0153C25.003 20.433 25.169 20.8335 25.4644 21.1288C25.7598 21.4241 26.1604 21.59 26.5781 21.5899C26.9958 21.59 27.3964 21.4241 27.6918 21.1288C27.9873 20.8335 28.1533 20.433 28.1534 20.0153C28.1534 19.8084 28.1127 19.6036 28.0335 19.4124C27.9544 19.2213 27.8384 19.0476 27.6921 18.9013C27.5458 18.7551 27.3721 18.639 27.181 18.5599C26.9899 18.4807 26.785 18.44 26.5781 18.44V18.44Z" fill="white"/>
</svg>
