<svg width="42" height="42" viewBox="0 0 42 42" fill="none" xmlns="http://www.w3.org/2000/svg">
<path d="M21.0312 2C10.5312 2 2 10.5312 2 21.0312C2 25.0344 3.21419 28.8732 5.57669 32.0888C5.74075 32.3841 6.06901 32.5156 6.36432 32.5156C6.56119 32.5156 6.75781 32.45 6.92188 32.3516C7.38125 32.0234 7.47943 31.4003 7.15131 30.9737C5.08412 28.0534 3.96875 24.6078 3.96875 21.0312C3.96875 11.9422 11.0891 4.49362 20.0469 4.00143V6.95456C17.75 7.11862 15.519 7.84062 13.5831 9.05469C13.0909 9.31719 12.9596 9.9405 13.2549 10.3999C13.5174 10.8921 14.1408 11.0233 14.6001 10.728C16.5361 9.51393 18.7344 8.89062 21.0312 8.89062C27.3969 8.89062 32.6142 13.8125 33.1392 20.0469H30.1861C30.0876 19.0953 29.8247 18.1764 29.4638 17.2905C29.2341 16.7983 28.6435 16.5686 28.1513 16.7983C27.6591 17.028 27.4294 17.6186 27.6591 18.1108C28.0857 19.0296 28.2827 20.0141 28.2827 21.0312C28.2827 25.0016 25.0342 28.25 21.0639 28.25C17.0936 28.25 13.8452 25.0016 13.8452 21.0312C13.8452 17.0609 17.0936 13.8125 21.0639 13.8125C22.0483 13.8125 22.9997 14.0091 23.8857 14.3701C24.3779 14.5669 24.9686 14.3374 25.1655 13.8452C25.3624 13.353 25.1328 12.7622 24.6406 12.5654C23.4594 12.0732 22.2781 11.8438 21.0312 11.8438C16.3063 11.8438 12.4013 15.4531 11.9091 20.0469H8.95599C9.12006 18.1109 9.71068 16.2409 10.7607 14.5674C11.0232 14.1081 10.8919 13.5169 10.4326 13.2216C9.97318 12.9591 9.38268 13.0904 9.08737 13.5497C7.67643 15.781 6.92188 18.3734 6.92188 21.0312C6.92188 28.4797 12.7297 34.5829 20.0469 35.1079V38.0611C16.7984 37.8642 13.7799 36.7815 11.1221 34.9112C10.6628 34.5831 10.0717 34.7141 9.74362 35.1406C9.4155 35.6 9.54713 36.1904 9.97369 36.5185C13.1893 38.8482 17.0281 40.0625 21.0312 40.0625C31.5312 40.0625 40.0625 31.5312 40.0625 21.0312C40.0625 17.0281 38.8487 13.1888 36.5518 9.94037C36.2237 9.48099 35.5999 9.38281 35.1733 9.71094C34.7139 10.0391 34.6158 10.6622 34.9439 11.0888C37.0111 14.0091 38.1264 17.4547 38.1264 21.0312C38.1264 30.1203 31.0062 37.5689 22.0156 38.0611V35.1079C24.3125 34.9439 26.5435 34.2219 28.4794 33.0078C28.9716 32.7453 29.1029 32.122 28.8076 31.6626C28.5451 31.1704 27.9217 31.0392 27.4624 31.3345C25.5264 32.5486 23.3281 33.1719 21.0312 33.1719C14.6656 33.1719 9.44831 28.25 8.92331 22.0156H11.8764C12.4014 26.6094 16.3063 30.2188 21.0312 30.2188C25.7562 30.2188 29.6612 26.6094 30.1534 22.0156H33.1065C32.9424 23.9516 32.3513 25.7889 31.2685 27.4624C31.006 27.9217 31.1372 28.5122 31.5966 28.8076C31.7607 28.9388 31.9581 28.9716 32.1221 28.9716C32.4503 28.9716 32.7783 28.8081 32.9751 28.5128C34.3861 26.2815 35.1406 23.6891 35.1406 21.0312C35.1406 13.5828 29.3328 7.47956 22.0156 6.95456V4.00143C25.2313 4.19831 28.3154 5.28099 30.9404 7.15131C31.3997 7.47943 31.9908 7.38125 32.3189 6.92188C32.647 6.4625 32.5154 5.87213 32.0888 5.54401C28.8732 3.21432 25.0344 2 21.0312 2ZM21.0312 18.4062C20.3351 18.4062 19.6674 18.6828 19.1751 19.1751C18.6828 19.6674 18.4062 20.3351 18.4062 21.0312C18.4062 21.7274 18.6828 22.3951 19.1751 22.8874C19.6674 23.3797 20.3351 23.6562 21.0312 23.6562C21.7274 23.6562 22.3951 23.3797 22.8874 22.8874C23.3797 22.3951 23.6562 21.7274 23.6562 21.0312C23.6562 20.3351 23.3797 19.6674 22.8874 19.1751C22.3951 18.6828 21.7274 18.4062 21.0312 18.4062V18.4062Z" fill="white"/>
</svg>
