<svg width="42" height="42" viewBox="0 0 42 42" fill="none" xmlns="http://www.w3.org/2000/svg">
<path d="M5.0249 2.39999C3.58115 2.39999 2.3999 3.58124 2.3999 5.02499V29.9625C2.3999 31.4062 3.58115 32.5875 5.0249 32.5875H14.8033L14.4418 34.7203C14.3434 35.2453 14.7043 35.7703 15.2621 35.8687H15.4262C15.8856 35.8687 16.3121 35.5406 16.4106 35.0484L17.4937 28.4859C17.5921 27.9609 17.2312 27.4359 16.6733 27.3375C16.5749 27.3047 16.4763 27.3375 16.3779 27.3375H4.36865V5.02499C4.36865 4.66406 4.66396 4.36874 5.0249 4.36874H37.8374C38.1983 4.36874 38.4937 4.66406 38.4937 5.02499V27.797C33.0796 27.4361 28.2564 24.0234 26.1236 18.9703L25.7955 18.2154C25.6642 17.756 25.2046 17.428 24.7124 17.5264C24.1874 17.6249 23.7937 18.1172 23.8921 18.6422L25.9262 31.5044V31.6031C25.9262 31.7672 25.9593 31.8987 26.0249 32.0299L26.7138 36.4263C26.7466 36.6888 26.6481 36.8862 26.5825 36.9518C26.5168 37.0174 26.3528 37.1812 26.0903 37.1812H10.2422C9.68441 37.1812 9.25784 37.6078 9.25784 38.1656C9.25784 38.7234 9.68441 39.15 10.2422 39.15H32.6201C33.1779 39.15 33.6045 38.7234 33.6045 38.1656C33.6045 37.6078 33.1779 37.1812 32.6201 37.1812H28.5845C28.683 36.8203 28.6828 36.4591 28.6172 36.0982L28.0923 32.5875H37.8374C39.2812 32.5875 40.4624 31.4062 40.4624 29.9625V5.02499C40.4624 3.58124 39.2812 2.39999 37.8374 2.39999H5.0249ZM21.4312 8.96249C20.1515 8.96249 19.1343 9.97968 19.1343 11.2594C19.1343 12.5391 20.1515 13.5562 21.4312 13.5562C22.2187 13.5562 22.9408 13.1299 23.3345 12.5065C22.9736 12.2112 22.7437 11.7844 22.7437 11.2594C22.7437 10.7344 22.9736 10.3076 23.3345 10.0122C22.9408 9.3888 22.2187 8.96249 21.4312 8.96249ZM21.4312 27.0094C20.822 27.0094 20.2378 27.2514 19.807 27.6821C19.3763 28.1129 19.1343 28.6971 19.1343 29.3062C19.1343 29.9154 19.3763 30.4996 19.807 30.9304C20.2378 31.3611 20.822 31.6031 21.4312 31.6031C22.0403 31.6031 22.6245 31.3611 23.0553 30.9304C23.486 30.4996 23.728 29.9154 23.728 29.3062C23.728 28.6971 23.486 28.1129 23.0553 27.6821C22.6245 27.2514 22.0403 27.0094 21.4312 27.0094ZM37.542 37.1812C37.2809 37.1812 37.0305 37.285 36.8459 37.4696C36.6613 37.6542 36.5576 37.9045 36.5576 38.1656C36.5576 38.4267 36.6613 38.6771 36.8459 38.8617C37.0305 39.0463 37.2809 39.15 37.542 39.15C37.803 39.15 38.0534 39.0463 38.238 38.8617C38.4226 38.6771 38.5263 38.4267 38.5263 38.1656C38.5263 37.9045 38.4226 37.6542 38.238 37.4696C38.0534 37.285 37.803 37.1812 37.542 37.1812V37.1812Z" fill="white"/>
</svg>
