<svg width="42" height="42" viewBox="0 0 42 42" fill="none" xmlns="http://www.w3.org/2000/svg">
<path d="M26.2865 1.15228C25.202 1.15255 24.1417 1.56257 23.3296 2.32956C22.8702 2.75612 22.5095 3.28125 22.2798 3.9375L21.8203 5.25H2.95313C2.39531 5.25 1.96875 5.67656 1.96875 6.23438V35.7656C1.96875 36.3234 2.39531 36.75 2.95313 36.75H23.625C25.9875 36.75 27.8906 34.8469 27.8906 32.4844V17.7841C31.8609 19.3263 36.2581 20.0156 36.3565 20.0156C36.7503 20.0156 37.1436 19.7531 37.2749 19.3594L40.4581 10.5654C41.2784 8.39974 40.1296 5.93893 37.9311 5.11862L27.7592 1.41119C27.2773 1.23688 26.7795 1.15216 26.2865 1.15228ZM3.9375 7.21875H23.625C24.9047 7.21875 25.9219 8.23594 25.9219 9.51562V32.4844C25.9219 33.7641 24.9047 34.7812 23.625 34.7812H3.9375V7.21875ZM14.9297 14.6016C13.6243 14.6016 12.3724 15.1201 11.4494 16.0431C10.5264 16.9662 10.0078 18.2181 10.0078 19.5234C10.0078 20.8288 10.5264 22.0807 11.4494 23.0037C12.3724 23.9268 13.6243 24.4453 14.9297 24.4453C16.2351 24.4453 17.4869 23.9268 18.41 23.0037C19.333 22.0807 19.8516 20.8288 19.8516 19.5234C19.8516 18.2181 19.333 16.9662 18.41 16.0431C17.4869 15.1201 16.2351 14.6016 14.9297 14.6016ZM35.1754 21.2634C34.7893 21.2788 34.4448 21.5253 34.3218 21.919L28.6783 37.4062C28.4814 37.9969 28.0549 38.4562 27.4971 38.7188C26.9393 38.9813 26.3158 39.0138 25.7251 38.7841L23.9858 38.1612C23.4608 37.9643 22.9034 38.2264 22.7393 38.7514C22.5424 39.2764 22.8046 39.8345 23.3296 39.9986L25.0362 40.5888C25.5284 40.7529 26.0206 40.8516 26.5128 40.8516C27.1362 40.8516 27.7268 40.7206 28.3174 40.4581C29.3346 39.9659 30.1219 39.1125 30.5156 38.0625L36.1591 22.5753C36.356 22.0503 36.0939 21.4922 35.5689 21.3281C35.4376 21.2789 35.3041 21.2583 35.1754 21.2634ZM10.9922 26.5781C10.4344 26.5781 10.0078 27.0047 10.0078 27.5625C10.0078 28.1203 10.4344 28.5469 10.9922 28.5469H18.8672C19.425 28.5469 19.8516 28.1203 19.8516 27.5625C19.8516 27.0047 19.425 26.5781 18.8672 26.5781H10.9922Z" fill="#131313"/>
</svg>
