<svg width="99" height="26" viewBox="0 0 99 26" fill="none" xmlns="http://www.w3.org/2000/svg">
<path d="M4.78403 25H0.176025V0.584H4.78403V25Z" fill="#131313"/>
<path d="M7.64078 25V7.048H11.9608V9.32C12.6434 8.36 13.3794 7.67733 14.1688 7.272C14.9581 6.86667 15.8541 6.664 16.8568 6.664C19.6301 6.664 21.4968 7.66667 22.4568 9.672C22.7768 10.376 22.9794 11.0907 23.0648 11.816C23.1501 12.5413 23.1928 13.4907 23.1928 14.664V25H18.9048V14.6C18.9048 12.872 18.6061 11.6773 18.0088 11.016C17.4968 10.4827 16.7394 10.216 15.7368 10.216C14.5208 10.216 13.6141 10.5787 13.0168 11.304C12.6541 11.7307 12.3874 12.3067 12.2168 13.032C12.0461 13.736 11.9608 14.6747 11.9608 15.848V25H7.64078Z" fill="#131313"/>
<path d="M26.9273 25V10.504H24.2073V7.048H26.9273V5.224C26.9273 3.73067 27.3539 2.58933 28.2073 1.8C29.0606 0.989333 30.2873 0.584 31.8873 0.584H34.5753V4.008H32.9113C31.8233 4.008 31.2793 4.616 31.2793 5.832V7.048H34.5753V10.504H31.2793V25H26.9273Z" fill="#131313"/>
<path d="M43.8413 25.352C42.0493 25.352 40.4599 24.9573 39.0733 24.168C37.6866 23.3787 36.5986 22.2693 35.8093 20.84C35.0413 19.4107 34.6573 17.768 34.6573 15.912C34.6573 14.12 35.0413 12.52 35.8093 11.112C36.5986 9.704 37.6866 8.616 39.0733 7.848C40.4599 7.05867 42.0493 6.664 43.8413 6.664C45.6333 6.664 47.2226 7.05867 48.6093 7.848C50.0173 8.63733 51.1053 9.736 51.8733 11.144C52.6626 12.5307 53.0573 14.12 53.0573 15.912C53.0573 17.768 52.6733 19.4107 51.9053 20.84C51.1373 22.2693 50.0493 23.3787 48.6413 24.168C47.2546 24.9573 45.6546 25.352 43.8413 25.352ZM43.8413 21.64C45.2493 21.64 46.3906 21.1067 47.2653 20.04C48.1399 18.9733 48.5773 17.5973 48.5773 15.912C48.5773 14.2907 48.1399 12.968 47.2653 11.944C46.3906 10.8987 45.2493 10.376 43.8413 10.376C42.9239 10.376 42.1026 10.6107 41.3773 11.08C40.6519 11.5493 40.0866 12.2107 39.6813 13.064C39.2759 13.896 39.0733 14.8453 39.0733 15.912C39.0733 17.6187 39.5106 19.0053 40.3853 20.072C41.2813 21.1173 42.4333 21.64 43.8413 21.64Z" fill="#131313"/>
<path d="M54.9883 25V7.048H59.3083V9.192C59.9696 8.27467 60.7056 7.624 61.5163 7.24C62.3483 6.856 63.3189 6.664 64.4283 6.664H64.9403V10.824H63.9483C62.5829 10.824 61.5163 11.1867 60.7483 11.912C60.2576 12.4027 59.8949 13.032 59.6603 13.8C59.4256 14.5467 59.3083 15.5067 59.3083 16.68V25H54.9883Z" fill="#131313"/>
<path d="M66.2083 25V7.048H70.5283V9.32C71.2109 8.38133 71.9469 7.70933 72.7363 7.304C73.5469 6.87733 74.4429 6.664 75.4243 6.664C76.6189 6.664 77.6323 6.90933 78.4643 7.4C79.2963 7.89067 79.8509 8.60533 80.1283 9.544C80.7043 8.54133 81.4296 7.816 82.3043 7.368C83.1789 6.89867 84.2136 6.664 85.4083 6.664C87.3709 6.664 88.8429 7.24 89.8243 8.392C90.8056 9.544 91.2963 11.1547 91.2963 13.224V25H86.9763V13.768C86.9763 11.4 86.0376 10.216 84.1603 10.216C83.2643 10.216 82.5496 10.504 82.0163 11.08C81.6109 11.528 81.3229 12.104 81.1523 12.808C81.0029 13.512 80.9283 14.408 80.9283 15.496V25H76.6083V13.768C76.6083 12.5733 76.3629 11.688 75.8723 11.112C75.3816 10.5147 74.6776 10.216 73.7603 10.216C72.8643 10.216 72.1389 10.5253 71.5843 11.144C71.2216 11.5707 70.9549 12.1253 70.7843 12.808C70.6136 13.4693 70.5283 14.3653 70.5283 15.496V25H66.2083Z" fill="#131313"/>
<path d="M95.8505 25.352C95.1252 25.352 94.5065 25.1067 93.9945 24.616C93.4825 24.104 93.2265 23.4853 93.2265 22.76C93.2265 22.0773 93.4825 21.4907 93.9945 21C94.5279 20.488 95.1465 20.232 95.8505 20.232C96.5119 20.232 97.0879 20.488 97.5785 21C98.0905 21.4907 98.3465 22.0773 98.3465 22.76C98.3465 23.4853 98.1012 24.104 97.6105 24.616C97.1199 25.1067 96.5332 25.352 95.8505 25.352Z" fill="#131313"/>
</svg>
