<svg width="220" height="32" viewBox="0 0 220 32" fill="none" xmlns="http://www.w3.org/2000/svg">
<path d="M0.0957031 0.67041H6.9327L18.5857 17.4404V0.67041H26.7557V30.7704H19.4457L7.8357 14.0004V30.7704H0.0957031V0.67041Z" fill="#131313"/>
<path d="M41.3656 31.3294C39.7603 31.3294 38.2553 31.1001 36.8506 30.6414C35.446 30.1541 34.2133 29.4231 33.1526 28.4484C32.092 27.4737 31.2606 26.2554 30.6586 24.7934C30.0566 23.3027 29.7556 21.5684 29.7556 19.5904V18.7304C29.7556 16.8671 30.0566 15.2331 30.6586 13.8284C31.2606 12.4237 32.092 11.2484 33.1526 10.3024C34.2133 9.35641 35.446 8.63975 36.8506 8.15241C38.2553 7.66508 39.7603 7.42141 41.3656 7.42141C42.971 7.42141 44.476 7.66508 45.8806 8.15241C47.2853 8.63975 48.518 9.35641 49.5786 10.3024C50.6393 11.2484 51.4706 12.4237 52.0726 13.8284C52.6746 15.2331 52.9756 16.8671 52.9756 18.7304V19.5904C52.9756 21.5397 52.6746 23.2597 52.0726 24.7504C51.4706 26.2124 50.6393 27.4307 49.5786 28.4054C48.518 29.3801 47.2853 30.1111 45.8806 30.5984C44.476 31.0857 42.971 31.3294 41.3656 31.3294ZM41.3656 25.8254C42.9136 25.8254 44.1033 25.2664 44.9346 24.1484C45.766 23.0304 46.1816 21.5111 46.1816 19.5904V18.7304C46.1816 17.0104 45.766 15.6201 44.9346 14.5594C44.1033 13.4701 42.9136 12.9254 41.3656 12.9254C39.8176 12.9254 38.628 13.4701 37.7966 14.5594C36.9653 15.6201 36.5496 17.0104 36.5496 18.7304V19.5904C36.5496 21.5684 36.9653 23.1021 37.7966 24.1914C38.628 25.2807 39.8176 25.8254 41.3656 25.8254Z" fill="#131313"/>
<path d="M55.1088 7.98041H61.2148V11.0764C61.3868 10.7037 61.6448 10.3024 61.9888 9.87241C62.3615 9.44241 62.7915 9.04108 63.2788 8.66841C63.7662 8.29575 64.3108 7.99474 64.9128 7.76541C65.5435 7.53608 66.2172 7.42141 66.9338 7.42141C67.4212 7.42141 67.8082 7.45008 68.0948 7.50741C68.3815 7.56474 68.6395 7.62208 68.8688 7.67941V13.3984C68.7255 13.3124 68.3958 13.2121 67.8798 13.0974C67.3638 12.9827 66.7618 12.9254 66.0738 12.9254C64.5545 12.9254 63.4508 13.3697 62.7628 14.2584C62.0748 15.1471 61.7308 16.2221 61.7308 17.4834V30.7704H55.1088V7.98041Z" fill="#131313"/>
<path d="M81.0886 31.0284C79.6552 31.0284 78.4225 30.8994 77.3905 30.6414C76.3585 30.3547 75.5129 29.8961 74.8536 29.2654C74.1942 28.6347 73.7069 27.8177 73.3915 26.8144C73.0762 25.7824 72.9185 24.5211 72.9185 23.0304V13.3984H70.1236V7.98041H72.9185V2.82041H79.5406V7.98041H84.7436V13.3984H79.5406V21.9554C79.5406 23.2454 79.7412 24.1627 80.1426 24.7074C80.5726 25.2521 81.3896 25.5244 82.5936 25.5244C83.4536 25.5244 84.3136 25.4814 85.1736 25.3954V30.8134C84.6289 30.8707 84.0556 30.9137 83.4536 30.9424C82.8516 30.9997 82.0632 31.0284 81.0886 31.0284Z" fill="#131313"/>
<path d="M87.3403 0.67041H93.9623V10.8614C94.1917 10.4887 94.507 10.1017 94.9083 9.70041C95.3097 9.29908 95.797 8.92641 96.3703 8.58241C96.9723 8.23841 97.6603 7.96608 98.4343 7.76541C99.2083 7.53608 100.068 7.42141 101.014 7.42141C103.738 7.42141 105.787 8.16674 107.163 9.65741C108.568 11.1194 109.27 13.1977 109.27 15.8924V30.7704H102.648V17.4404C102.648 15.9497 102.319 14.8317 101.659 14.0864C101.029 13.3124 99.9823 12.9254 98.5203 12.9254C96.915 12.9254 95.754 13.3554 95.0373 14.2154C94.3207 15.0754 93.9623 16.1504 93.9623 17.4404V30.7704H87.3403V0.67041Z" fill="#131313"/>
<path d="M109.946 7.98041H117.084L120.266 21.9984L124.265 7.98041H130.457L134.757 21.8694L138.326 7.98041H144.776L138.412 30.7704H131.79L127.318 15.9784L122.932 30.7704H116.31L109.946 7.98041Z" fill="#131313"/>
<path d="M156.824 31.3294C155.161 31.3294 153.599 31.1001 152.137 30.6414C150.704 30.1541 149.457 29.4231 148.396 28.4484C147.335 27.4737 146.504 26.2554 145.902 24.7934C145.3 23.3027 144.999 21.5684 144.999 19.5904V18.7304C144.999 16.8384 145.286 15.1901 145.859 13.7854C146.461 12.3807 147.264 11.2054 148.267 10.2594C149.299 9.31341 150.503 8.61108 151.879 8.15241C153.284 7.66508 154.789 7.42141 156.394 7.42141C160.149 7.42141 162.987 8.39608 164.908 10.3454C166.829 12.2661 167.789 15.0611 167.789 18.7304V21.0954H151.793C151.822 21.9841 151.979 22.7437 152.266 23.3744C152.553 23.9764 152.925 24.4781 153.384 24.8794C153.843 25.2807 154.359 25.5817 154.932 25.7824C155.534 25.9544 156.165 26.0404 156.824 26.0404C158.085 26.0404 159.074 25.8541 159.791 25.4814C160.536 25.0801 161.024 24.5497 161.253 23.8904H167.359C166.9 26.3844 165.768 28.2477 163.962 29.4804C162.156 30.7131 159.777 31.3294 156.824 31.3294ZM156.609 12.6674C156.007 12.6674 155.419 12.7391 154.846 12.8824C154.301 13.0257 153.8 13.2694 153.341 13.6134C152.911 13.9287 152.553 14.3444 152.266 14.8604C152.008 15.3764 151.865 16.0071 151.836 16.7524H161.296C161.296 15.9497 161.167 15.2904 160.909 14.7744C160.651 14.2584 160.307 13.8427 159.877 13.5274C159.476 13.2121 158.988 12.9971 158.415 12.8824C157.842 12.7391 157.24 12.6674 156.609 12.6674Z" fill="#131313"/>
<path d="M179.822 31.3294C177.959 31.3294 176.354 31.1431 175.006 30.7704C173.688 30.3691 172.598 29.8387 171.738 29.1794C170.878 28.4914 170.233 27.7031 169.803 26.8144C169.373 25.8971 169.13 24.9224 169.072 23.8904H175.694C175.866 24.5497 176.239 25.1087 176.812 25.5674C177.386 26.0261 178.389 26.2554 179.822 26.2554C181.284 26.2554 182.331 26.0547 182.961 25.6534C183.621 25.2521 183.95 24.7217 183.95 24.0624C183.95 23.8044 183.879 23.5751 183.735 23.3744C183.592 23.1451 183.32 22.9444 182.918 22.7724C182.546 22.5717 182.03 22.3854 181.37 22.2134C180.711 22.0414 179.865 21.8694 178.833 21.6974C177.572 21.4967 176.382 21.2387 175.264 20.9234C174.146 20.6081 173.172 20.1924 172.34 19.6764C171.538 19.1317 170.893 18.4437 170.405 17.6124C169.947 16.7811 169.717 15.7347 169.717 14.4734C169.717 13.4701 169.947 12.5384 170.405 11.6784C170.864 10.8184 171.523 10.0731 172.383 9.44241C173.272 8.81175 174.333 8.32441 175.565 7.98041C176.827 7.60774 178.246 7.42141 179.822 7.42141C181.6 7.42141 183.09 7.63641 184.294 8.06641C185.527 8.49641 186.53 9.06974 187.304 9.78641C188.078 10.4744 188.652 11.2627 189.024 12.1514C189.397 13.0401 189.626 13.9431 189.712 14.8604H183.09C182.918 14.1151 182.546 13.5417 181.972 13.1404C181.399 12.7104 180.682 12.4954 179.822 12.4954C178.504 12.4954 177.586 12.6961 177.07 13.0974C176.583 13.4987 176.339 13.9717 176.339 14.5164C176.339 15.1184 176.741 15.5914 177.543 15.9354C178.346 16.2507 179.622 16.5231 181.37 16.7524C182.603 16.9244 183.778 17.1681 184.896 17.4834C186.014 17.7987 186.989 18.2431 187.82 18.8164C188.68 19.3611 189.354 20.0634 189.841 20.9234C190.329 21.7547 190.572 22.7724 190.572 23.9764C190.572 26.1551 189.655 27.9324 187.82 29.3084C186.014 30.6557 183.348 31.3294 179.822 31.3294Z" fill="#131313"/>
<path d="M202.169 31.0284C200.735 31.0284 199.503 30.8994 198.471 30.6414C197.439 30.3547 196.593 29.8961 195.934 29.2654C195.274 28.6347 194.787 27.8177 194.472 26.8144C194.156 25.7824 193.999 24.5211 193.999 23.0304V13.3984H191.204V7.98041H193.999V2.82041H200.621V7.98041H205.824V13.3984H200.621V21.9554C200.621 23.2454 200.821 24.1627 201.223 24.7074C201.653 25.2521 202.47 25.5244 203.674 25.5244C204.534 25.5244 205.394 25.4814 206.254 25.3954V30.8134C205.709 30.8707 205.136 30.9137 204.534 30.9424C203.932 30.9997 203.143 31.0284 202.169 31.0284Z" fill="#131313"/>
<path fill-rule="evenodd" clip-rule="evenodd" d="M213.865 5.20801H212.209V9.33301H212.959V7.75372H213.853L214.821 9.33301H215.646L214.546 7.67122C214.871 7.58086 215.115 7.43354 215.278 7.22926C215.44 7.02104 215.521 6.77551 215.521 6.49265C215.521 6.30408 215.486 6.13122 215.415 5.97408C215.344 5.81694 215.24 5.6814 215.103 5.56747C214.965 5.45354 214.792 5.36515 214.584 5.30229C214.38 5.23944 214.14 5.20801 213.865 5.20801ZM214.54 6.98765C214.39 7.10551 214.124 7.16444 213.74 7.16444H212.959V5.82087H213.74C214.124 5.82087 214.39 5.87979 214.54 5.99765C214.694 6.11551 214.771 6.28051 214.771 6.49265C214.771 6.70479 214.694 6.86979 214.54 6.98765Z" fill="#131313"/>
<path fill-rule="evenodd" clip-rule="evenodd" d="M208.084 7.27051C208.084 4.23294 210.546 1.77051 213.584 1.77051C216.622 1.77051 219.084 4.23294 219.084 7.27051C219.084 10.3081 216.622 12.7705 213.584 12.7705C210.546 12.7705 208.084 10.3081 208.084 7.27051ZM213.584 12.0205C210.961 12.0205 208.834 9.89386 208.834 7.27051C208.834 4.64716 210.961 2.52051 213.584 2.52051C216.207 2.52051 218.334 4.64716 218.334 7.27051C218.334 9.89386 216.207 12.0205 213.584 12.0205Z" fill="#131313"/>
</svg>
