<svg width="231" height="42" viewBox="0 0 231 42" fill="none" xmlns="http://www.w3.org/2000/svg">
<path d="M15.2666 21.9351C23.6093 21.9351 31.498 17.1962 31.498 9.93179C31.498 3.88759 25.2835 0 16.6854 0C8.3427 0 0 4.28486 0 11.5493C0 17.5935 6.66849 21.9351 15.2666 21.9351ZM18.4447 19.5231C9.47777 19.5231 6.27122 12.5424 6.27122 8.73997C6.27122 5.10778 8.11569 1.95798 13.337 1.95798C18.9555 1.95798 25.5105 6.21446 25.5105 12.7411C25.5105 16.1179 23.4674 19.5231 18.4447 19.5231Z" fill="#131313"/>
<path d="M68.3101 19.7217C68.1682 18.9839 68.0263 17.9056 68.0263 16.3733V6.12933C68.0263 2.21337 68.8776 1.30532 68.8776 1.30532H65.1887C65.1887 1.30532 66.04 2.21337 66.04 6.10096L65.9548 16.3733C65.9548 16.7422 65.9548 17.1111 65.9265 17.4232L49.0992 1.30532H40.3024C40.8416 1.73097 41.4943 2.32688 42.2604 3.03629C42.3739 3.7457 42.4874 4.73888 42.4874 6.10096L42.4023 16.3733C42.4023 20.2608 41.551 21.1689 41.551 21.1689H45.3251C45.3251 21.1689 44.4738 20.2608 44.4738 16.3733V6.12933C44.4738 5.78881 44.4738 5.4483 44.5022 5.13615C49.1275 9.61965 55.7393 16.3449 60.7052 21.1689H65.1035C66.9764 21.1689 68.1682 21.1689 68.8776 21.1689H69.8424L68.3101 19.7217Z" fill="#131313"/>
<path d="M117.903 1.30532C117.903 1.30532 118.215 2.63902 116.002 7.71842L111.206 17.0827L105.814 6.24284C104.396 3.29168 104.083 1.30532 104.112 1.30532H95.2583C96.2514 2.44038 97.2162 4.14297 98.0959 5.81719L92.3071 17.0827L86.9156 6.24284C85.4967 3.29168 85.1846 1.30532 85.213 1.30532H76.3595C77.8918 3.06467 79.3958 6.24284 80.5592 8.39946L87.4263 21.1689H92.449L99.3161 8.11569C99.3729 8.2292 99.4012 8.31433 99.458 8.39946L106.325 21.1689H111.348L120.201 4.34161C120.826 3.29168 121.507 2.24175 122.216 1.30532H117.903Z" fill="#131313"/>
<path d="M124.469 21.1689H129.378C129.009 20.2892 129.293 19.3244 129.86 18.3029L131.762 15.1531H143.822L145.411 17.7921C145.978 18.9555 146.603 20.5162 146.063 21.1689H156.336C155.172 20.4879 152.874 17.2813 151.427 15.0396L150.036 12.8829L142.431 1.30532H132.272V1.4472C133.72 1.78772 135.11 2.7809 136.273 3.91596C133.918 7.66167 131.591 11.4074 129.236 15.1247C127.931 17.1394 126.086 19.6933 124.469 21.1689ZM132.528 13.8478L137.636 5.39154C138.288 6.18609 138.827 6.98063 139.196 7.54816L143.027 13.8478H132.528Z" fill="#131313"/>
<path d="M182.246 12.9397C186.928 12.1168 190.248 9.61965 190.248 6.58336C190.248 3.12142 187.808 1.02156 176.571 1.02156H163.716C163.716 1.02156 164.794 1.64584 164.766 6.10096L164.681 16.3733C164.652 20.2608 163.915 21.1689 163.915 21.1689H171.775C171.775 21.1689 171.009 20.2608 171.009 16.3733V12.1168C172.286 12.1735 173.761 12.7411 175.691 13.8478C176.798 14.5004 178.983 16.1463 182.586 20.2608C182.785 20.4879 183.097 20.9703 183.097 21.1689H193.455V20.7149C190.844 20.5446 186.162 16.2598 182.246 12.9397ZM171.009 6.4131C171.009 4.68213 171.122 3.6322 171.236 2.61064C172.201 2.44038 173.222 2.32688 175.152 2.32688C179.891 2.32688 183.863 3.94434 183.863 7.88868C183.863 10.6696 180.657 12.0884 177.592 12.0884C174.386 12.0884 172.484 11.2655 171.009 10.4142V6.4131Z" fill="#131313"/>
<path d="M216.411 1.30532H202.535C202.535 1.30532 203.387 2.21337 203.387 6.10096L203.301 16.3733C203.301 20.2608 202.535 21.1973 202.535 21.1973H214.624C224.783 21.1973 230.288 15.4652 230.288 9.53452C230.288 3.34843 223.562 1.30532 216.411 1.30532ZM215.447 20.0055C212.779 20.0055 211.077 19.4379 209.743 18.615C209.658 18.0191 209.629 17.2813 209.629 16.3733V6.12933C209.629 4.82401 209.715 3.85921 209.828 3.1498C211.389 2.63902 212.864 2.58227 214.085 2.61064C219.107 2.61064 223.761 5.24966 223.761 11.606C223.761 16.4584 221.207 20.0055 215.447 20.0055Z" fill="#131313"/>
<path d="M52.4187 36.5182H54.9984V41.8065H56.2882V36.5182H58.8679V35.3573H52.4187V36.5182Z" fill="#131313"/>
<path d="M61.6421 41.8065H62.9319V39.1623H65.1246L66.7627 41.8065H68.2203L66.7627 39.459C66.7111 39.3687 66.6209 39.2526 66.5306 39.1494C67.5495 39.0463 68.2203 38.324 68.2203 37.2921C68.2203 36.1312 67.4464 35.3573 66.2855 35.3573H61.6421V41.8065ZM62.9319 38.0015V36.5182H66.2855C66.6724 36.5182 66.9304 36.7761 66.9304 37.1631V37.3566C66.9304 37.7435 66.6724 38.0015 66.2855 38.0015H62.9319Z" fill="#131313"/>
<path d="M71.9692 41.8065L72.498 40.5167H75.9032L76.432 41.8065H77.8251L75.1809 35.3573H73.2461L70.6019 41.8065H71.9692ZM72.9752 39.3558L74.1361 36.5182H74.2651L75.4259 39.3558H72.9752Z" fill="#131313"/>
<path d="M79.1219 35.3573L81.7661 41.8065H83.7009L86.3451 35.3573H84.9778L82.8109 40.6457H82.6819L80.515 35.3573H79.1219Z" fill="#131313"/>
<path d="M95.311 36.5182V35.3573H88.9908V41.8065H95.311V40.6457H90.2806V39.1623H94.0211V38.0015H90.2806V36.5182H95.311Z" fill="#131313"/>
<path d="M98.3421 41.8065H103.501V40.6457H99.632V35.3573H98.3421V41.8065Z" fill="#131313"/>
<path d="M110.785 41.8065H115.299C116.46 41.8065 117.234 41.0326 117.234 39.8718C117.234 39.2526 116.924 38.7754 116.395 38.5045C116.757 38.2208 116.976 37.7951 116.976 37.2921C116.976 36.1312 116.202 35.3573 115.041 35.3573H110.785V41.8065ZM112.074 39.1623H115.299C115.686 39.1623 115.944 39.4203 115.944 39.8073V40.0007C115.944 40.3877 115.686 40.6457 115.299 40.6457H112.074V39.1623ZM112.074 38.0015V36.5182H115.041C115.428 36.5182 115.686 36.7761 115.686 37.1631V37.3566C115.686 37.7435 115.428 38.0015 115.041 38.0015H112.074Z" fill="#131313"/>
<path d="M123.167 35.2283C121.232 35.2283 119.813 36.6472 119.813 38.5819C119.813 40.5167 121.232 41.9355 123.167 41.9355C125.102 41.9355 126.521 40.5167 126.521 38.5819C126.521 36.6472 125.102 35.2283 123.167 35.2283ZM123.167 40.7102C122.006 40.7102 121.168 39.8073 121.168 38.5819C121.168 37.3566 122.006 36.4537 123.167 36.4537C124.328 36.4537 125.166 37.3566 125.166 38.5819C125.166 39.8073 124.328 40.7102 123.167 40.7102Z" fill="#131313"/>
<path d="M132.52 40.7102C131.475 40.7102 130.714 39.8718 130.714 38.7109V35.3573H129.424V38.7109C129.424 40.5683 130.74 41.9355 132.52 41.9355C134.3 41.9355 135.616 40.5683 135.616 38.7109V35.3573H134.326V38.7109C134.326 39.8718 133.565 40.7102 132.52 40.7102Z" fill="#131313"/>
<path d="M138.387 36.5182H140.967V41.8065H142.257V36.5182H144.836V35.3573H138.387V36.5182Z" fill="#131313"/>
<path d="M148.9 41.8065V35.3573H147.611V41.8065H148.9Z" fill="#131313"/>
<path d="M157.878 42L158.574 41.3035L157.878 40.607C158.278 40.0652 158.51 39.3687 158.51 38.5819C158.51 36.6472 157.091 35.2283 155.156 35.2283C153.221 35.2283 151.803 36.6472 151.803 38.5819C151.803 40.5167 153.221 41.9355 155.156 41.9355C155.943 41.9355 156.627 41.7033 157.181 41.3035L157.878 42ZM156.265 40.3877C155.956 40.5941 155.569 40.7102 155.156 40.7102C153.995 40.7102 153.157 39.8073 153.157 38.5819C153.157 37.3566 153.995 36.4537 155.156 36.4537C156.317 36.4537 157.155 37.3566 157.155 38.5819C157.155 38.9818 157.065 39.3429 156.91 39.6525L156.149 38.8786L155.453 39.5751L156.265 40.3877Z" fill="#131313"/>
<path d="M164.509 40.7102C163.464 40.7102 162.703 39.8718 162.703 38.7109V35.3573H161.413V38.7109C161.413 40.5683 162.729 41.9355 164.509 41.9355C166.289 41.9355 167.605 40.5683 167.605 38.7109V35.3573H166.315V38.7109C166.315 39.8718 165.554 40.7102 164.509 40.7102Z" fill="#131313"/>
<path d="M177.148 36.5182V35.3573H170.828V41.8065H177.148V40.6457H172.118V39.1623H175.858V38.0015H172.118V36.5182H177.148Z" fill="#131313"/>
</svg>
