<svg width="21" height="21" viewBox="0 0 21 21" fill="none" xmlns="http://www.w3.org/2000/svg">
<g clip-path="url(#clip0)">
<path d="M20.9597 3.99783C20.1854 4.33821 19.3585 4.57008 18.4879 4.67596C19.3751 4.14133 20.0576 3.29871 20.3805 2.29333C19.5484 2.77896 18.6261 3.13246 17.6444 3.32933C16.8604 2.49021 15.743 1.96521 14.5022 1.96521C12.1249 1.96521 10.1972 3.89283 10.1972 6.26758C10.1972 6.60883 10.2366 6.93696 10.3084 7.25108C6.72962 7.08221 3.55775 5.36371 1.435 2.76583C1.06137 3.39758 0.85225 4.13171 0.85225 4.93146C0.85225 6.42771 1.6135 7.74284 2.76675 8.51546C2.06062 8.49271 1.3965 8.29846 0.81725 7.97646V8.02983C0.81725 10.1167 2.29862 11.8571 4.27 12.2535C3.90862 12.3506 3.52712 12.4031 3.136 12.4031C2.86125 12.4031 2.59787 12.3768 2.3345 12.3278C2.88662 14.0367 4.47387 15.2827 6.363 15.3177C4.893 16.4718 3.03012 17.1596 1.02375 17.1596C0.6825 17.1596 0.342125 17.1395 0 17.101C1.91537 18.3207 4.172 19.0338 6.61237 19.0338C14.5346 19.0338 18.8615 12.4748 18.8615 6.79608C18.8615 6.61321 18.8615 6.42858 18.8484 6.24483C19.6892 5.64196 20.4234 4.87984 21.0009 4.01534L20.9597 3.99783Z" fill="white"/>
</g>
<defs>
<clipPath id="clip0">
<rect width="21" height="21" fill="white"/>
</clipPath>
</defs>
</svg>
