<svg width="160" height="56" viewBox="0 0 160 56" fill="none" xmlns="http://www.w3.org/2000/svg">
<path d="M41.9749 0.0570323H34.9009C34.7389 0.0570323 34.5769 0.0570323 34.5229 0.0570323C34.4149 0.111035 34.3069 0.435034 34.4689 0.543032C34.5229 0.543032 34.6849 0.543032 34.7929 0.651034C36.3049 1.51503 35.9269 7.18503 34.7929 12.477L31.4449 25.761C31.2829 26.463 31.1749 26.139 31.0669 25.707L26.4229 8.37303C25.3429 4.48503 25.5589 2.10903 26.2609 1.08304C26.3689 0.867035 26.4769 0.759033 26.5309 0.705034C26.5309 0.705034 26.5309 0.705034 26.5309 0.651034C26.5849 0.651034 26.6389 0.597035 26.6389 0.597035H26.6929C26.7469 0.597035 26.8009 0.543032 26.8009 0.489033C26.9089 0.327032 26.8549 0.111035 26.6929 0.0570323H15.9469C15.7309 0.0570323 15.5689 0.111035 15.5689 0.327032C15.5689 0.327032 15.5689 0.543032 15.8389 0.651034C17.1889 1.19103 18.9169 5.94303 19.9969 9.45303C19.8349 10.425 19.6189 11.451 19.4569 12.477L16.0549 25.761C15.9469 26.463 15.7849 26.139 15.7309 25.707L11.0329 8.37303C10.0069 4.48503 10.1689 2.10903 10.8709 1.08304C11.1949 0.597035 11.3029 0.543032 11.3569 0.543032C11.5729 0.435034 11.4649 0.0570323 11.2489 0.0570323H0.556924C0.394924 0.0570323 0.232924 0.111035 0.232924 0.327032C0.232924 0.327032 0.178924 0.543032 0.448924 0.651034C2.39292 1.35303 4.93092 10.479 5.57892 12.639C6.01092 13.989 13.6789 39.909 13.6789 39.909C13.7869 40.233 14.1109 40.233 14.2189 39.909C14.2189 39.909 20.8069 14.475 21.1309 13.179C22.3189 17.121 29.0689 39.909 29.0689 39.909C29.1229 40.233 29.5009 40.233 29.5549 39.909C29.5549 39.909 36.1969 14.475 36.5209 13.179C38.1949 6.80703 40.2469 1.35303 42.0289 0.597035C42.4069 0.435034 42.3529 0.0570323 41.9749 0.0570323Z" fill="white"/>
<path d="M55.1817 20.091C55.1277 19.659 54.9657 19.227 54.7497 18.741C53.6697 15.717 50.8077 13.827 47.9457 13.503C47.7297 13.449 47.5677 13.449 47.3517 13.449H46.9197C41.7357 13.611 36.8217 19.767 37.2537 28.245C37.2537 28.461 37.3077 28.731 37.3077 29.001C37.5237 31.215 38.2257 33.591 39.6837 35.643C41.8977 38.775 45.2997 39.963 48.7017 39.801C52.2657 39.639 54.2637 37.965 54.5337 37.317C54.6957 36.993 54.6417 36.993 53.9937 36.993C50.4837 37.047 45.4077 34.779 43.9497 28.731C43.6797 27.651 43.4097 26.409 43.2477 24.951C43.1937 24.843 43.1937 24.681 43.1937 24.573L43.2477 24.627C43.3017 24.627 43.3017 24.573 43.4097 24.573L51.0777 23.709L53.8317 23.385L55.2897 23.223C55.5597 23.223 55.7757 23.007 55.7217 22.737C55.6677 22.035 55.5057 21.171 55.1817 20.091ZM46.6497 22.359L43.3557 23.223C43.3017 23.223 43.2477 23.223 43.1937 23.169V22.899C43.0857 18.849 44.4357 15.501 46.2717 15.123C46.5417 15.069 46.8117 15.015 47.1357 15.069C47.9997 15.285 48.7017 15.987 49.0797 16.851C49.6737 18.093 49.7277 19.605 48.9717 20.793C48.4857 21.495 47.7297 22.089 46.6497 22.359Z" fill="white"/>
<path d="M65.1253 28.785C65.1253 28.785 64.8013 4.10703 65.1793 0.381035C65.2333 -0.0509663 64.8553 -0.104966 64.6393 0.165034C64.6393 0.165034 62.4793 2.10904 60.8593 3.40503C59.4013 4.59304 57.9433 5.40303 57.9433 5.40303C57.6733 5.51103 57.7813 5.88903 57.7813 5.88903C57.7813 5.88903 58.5913 8.58904 58.7533 15.177V29.163C58.6993 32.673 58.4833 37.371 57.7273 38.937C57.5653 39.153 57.6733 39.369 57.9433 39.369C61.2373 39.369 64.5313 39.369 66.1513 39.369C66.4213 39.369 66.5293 39.207 66.3673 38.991C65.6113 37.965 65.1793 34.401 65.1253 28.785Z" fill="white"/>
<path d="M76.6087 28.785C76.6087 28.785 76.2848 4.10703 76.6628 0.381035C76.7168 -0.0509663 76.3388 -0.104966 76.1227 0.165034C76.1227 0.165034 73.9628 2.10904 72.3428 3.40503C70.8848 4.59304 69.4268 5.40303 69.4268 5.40303C69.1568 5.51103 69.2647 5.88903 69.2647 5.88903C69.2647 5.88903 70.0747 8.58904 70.2367 15.177V29.163C70.1827 32.673 69.9667 37.371 69.2107 38.937C69.0487 39.153 69.1568 39.369 69.4268 39.369C72.7207 39.369 76.0147 39.369 77.6348 39.369C77.9047 39.369 78.0127 39.207 77.8507 38.991C77.0947 37.965 76.6628 34.401 76.6087 28.785Z" fill="white"/>
<path d="M89.4422 38.775C89.2262 38.559 89.0642 38.289 88.9562 38.019C88.7942 37.695 88.6862 37.371 88.5782 36.993C88.5242 36.669 88.4702 36.345 88.4702 36.021C88.3622 35.481 88.3622 34.941 88.3622 34.401C88.3622 33.807 88.3622 32.565 88.3082 30.999C88.3082 30.783 88.3082 30.621 88.3082 30.405C88.2542 28.461 88.2542 25.599 88.2002 23.493V22.629C88.2002 19.497 88.1462 16.689 88.1462 16.419C88.1462 16.095 88.2002 15.825 88.2002 15.501C88.2002 15.339 88.2002 15.231 88.2002 15.069C88.2002 14.853 88.2002 14.637 88.2002 14.475C88.2002 14.475 88.2002 14.475 88.2002 14.421C88.2542 14.259 88.2542 14.097 88.2542 13.935C88.2542 13.719 88.2542 13.557 88.2542 13.395C88.2542 13.125 88.0922 13.071 87.9842 13.071C87.9302 13.071 87.8762 13.071 87.8222 13.125C87.8222 13.125 87.8222 13.125 87.7682 13.125C87.7142 13.179 87.6602 13.233 87.6062 13.287C86.9582 13.881 85.6622 15.231 82.9082 16.905C81.8822 17.499 81.1802 17.877 81.1802 17.877C80.7482 18.039 80.6402 18.147 80.6402 18.309C80.5322 18.741 81.9362 19.551 81.8822 23.439C81.9362 24.897 81.9362 28.191 81.9362 30.513C81.9362 30.675 81.9362 30.837 81.9362 31.053C81.9362 32.781 81.9362 34.131 81.9362 34.455C81.8822 36.237 81.7742 37.749 80.9642 38.775C80.6942 39.153 80.5322 39.315 80.9102 39.477H89.3882C89.6582 39.369 89.6582 39.099 89.4422 38.775ZM85.3382 7.88703C87.4982 7.88703 89.2262 6.10503 89.2262 3.99903C89.2262 1.83904 87.4982 0.111035 85.3382 0.111035C83.1782 0.111035 81.4502 1.83904 81.4502 3.99903C81.4502 6.10503 83.1782 7.88703 85.3382 7.88703Z" fill="white"/>
<path d="M113.339 25.869C113.339 25.275 113.393 24.627 113.393 23.925C113.447 21.495 113.393 18.525 113.393 18.309C113.177 16.257 112.637 15.285 111.611 14.421C111.179 13.989 109.991 13.287 108.317 13.395C104.321 13.611 99.7853 17.877 99.7853 17.877C99.7853 16.149 99.8933 14.745 99.8933 13.989C99.8933 13.719 99.3533 13.557 99.0293 13.935C98.7053 14.367 97.3013 15.717 95.5193 16.797C93.6293 17.931 92.6033 18.363 92.6033 18.363C92.4413 18.471 92.3873 18.579 92.3873 18.795C93.3053 20.091 93.6293 23.385 93.6293 25.707C93.6293 28.029 93.5753 32.889 93.5753 33.537C93.4673 35.859 92.9273 38.289 92.5493 38.775C92.2793 39.153 92.2793 39.477 92.8733 39.477C92.8733 39.477 96.0593 39.477 100.595 39.477C101.081 39.423 101.135 39.207 100.811 38.829C100.325 38.181 99.8933 36.075 99.8393 34.293C99.7313 31.539 99.8393 25.275 99.8933 19.551C99.8933 19.551 103.889 16.959 105.995 18.201C107.237 18.903 107.021 21.225 107.075 24.357C107.075 26.139 107.129 33.375 106.913 35.805C106.805 36.723 106.481 38.127 106.211 38.775C106.049 39.207 105.995 39.477 106.535 39.477C106.535 39.477 109.613 39.477 114.203 39.477C114.635 39.423 114.635 39.207 114.365 38.829C113.555 37.533 113.393 34.725 113.339 32.511C113.339 32.079 113.339 31.485 113.339 30.891C113.339 29.649 113.339 28.029 113.339 25.923V25.869Z" fill="white"/>
<path d="M139.026 14.583C139.35 13.935 139.188 13.611 138.756 13.773C138.756 13.773 136.38 15.879 133.032 14.637C131.574 14.043 129.738 13.503 127.47 13.395C121.26 13.179 116.94 18.741 116.346 26.247C115.644 33.969 119.748 41.097 127.146 39.531C129.36 39.045 131.034 37.533 131.736 35.589V40.395C131.736 41.421 131.79 42.879 131.358 44.445C130.872 47.523 128.604 49.953 125.85 51.195C125.688 51.303 125.634 51.573 125.904 51.627C131.79 52.815 137.892 50.169 138 42.285C138.054 41.853 137.784 25.923 137.892 22.413C137.892 19.281 138.108 16.527 139.026 14.583ZM131.574 30.351V30.405C131.574 30.675 131.52 30.999 131.466 31.323C131.196 33.807 130.44 35.157 128.334 35.373C125.634 35.643 122.934 32.673 122.448 26.625C121.908 19.875 123.42 14.961 127.146 15.069C127.74 15.069 128.442 15.339 128.874 15.609C130.926 16.743 131.25 20.145 131.574 24.249V24.411C131.628 24.843 131.628 25.383 131.682 25.869C131.682 27.489 131.682 29.001 131.574 30.351Z" fill="white"/>
<path d="M153.973 24.573C151.165 22.629 148.357 21.225 147.655 18.903C147.115 17.067 147.763 15.393 149.491 15.177C151.597 14.907 153.325 16.311 154.513 17.553C155.431 18.579 156.781 20.415 156.781 20.415C157.051 21.009 157.537 20.739 157.537 20.523C157.537 20.523 157.645 17.931 157.807 15.393C157.861 15.123 157.699 15.069 157.537 15.015C157.537 15.015 154.459 13.503 150.949 13.503C145.981 13.503 141.769 15.501 141.769 20.469C141.769 22.359 142.687 24.465 144.145 25.815C148.519 29.919 152.137 30.999 153.109 33.645C153.865 35.589 153.217 37.641 151.327 38.019C148.627 38.613 147.007 36.669 145.495 34.725C144.091 32.997 143.065 30.297 143.065 30.297C142.957 30.135 142.687 30.243 142.687 30.405C142.687 30.405 141.877 37.155 142.093 37.533C142.309 37.911 143.281 38.235 144.361 38.613C145.981 39.099 148.033 39.585 150.139 39.639C155.863 39.855 159.049 36.723 159.265 32.457C159.427 28.623 156.511 26.355 153.973 24.573Z" fill="white"/>
<path d="M15.6209 50.203L15.0449 55.315H13.5809L14.7329 46.495L18.1769 52.195L21.6329 46.495L22.7849 55.315H21.3209L20.7449 50.203L18.1769 54.535L15.6209 50.203Z" fill="white"/>
<path d="M31.0745 55.315L30.1145 53.155H27.0185L26.0585 55.315H24.4625L28.5665 46.447L32.6705 55.315H31.0745ZM28.5665 49.291L27.4265 51.955H29.7065L28.5665 49.291Z" fill="white"/>
<path d="M38.4804 52.123V50.923H42.5244C42.5404 51.539 42.4604 52.123 42.2844 52.675C42.1084 53.219 41.8444 53.703 41.4924 54.127C41.1404 54.551 40.7044 54.887 40.1844 55.135C39.6644 55.375 39.0684 55.495 38.3964 55.495C37.7644 55.495 37.1804 55.391 36.6444 55.183C36.1084 54.967 35.6404 54.663 35.2404 54.271C34.8484 53.879 34.5444 53.415 34.3284 52.879C34.1124 52.343 34.0044 51.755 34.0044 51.115C34.0044 50.475 34.1124 49.891 34.3284 49.363C34.5524 48.827 34.8604 48.367 35.2524 47.983C35.6524 47.599 36.1204 47.303 36.6564 47.095C37.2004 46.879 37.7884 46.771 38.4204 46.771C39.2444 46.771 39.9604 46.935 40.5684 47.263C41.1764 47.591 41.6644 48.047 42.0324 48.631L40.8804 49.411C40.6484 49.011 40.3244 48.691 39.9084 48.451C39.5004 48.203 39.0044 48.079 38.4204 48.079C37.8764 48.079 37.3804 48.207 36.9324 48.463C36.4924 48.711 36.1404 49.063 35.8764 49.519C35.6204 49.967 35.4924 50.499 35.4924 51.115C35.4924 51.723 35.6204 52.259 35.8764 52.723C36.1324 53.179 36.4804 53.535 36.9204 53.791C37.3684 54.047 37.8684 54.175 38.4204 54.175C38.9244 54.175 39.3564 54.083 39.7164 53.899C40.0764 53.715 40.3684 53.467 40.5924 53.155C40.8164 52.843 40.9724 52.499 41.0604 52.123H38.4804Z" fill="white"/>
<path d="M50.5135 55.315L49.5536 53.155H46.4576L45.4976 55.315H43.9016L48.0056 46.447L52.1096 55.315H50.5135ZM48.0056 49.291L46.8656 51.955H49.1455L48.0056 49.291Z" fill="white"/>
<path d="M53.8787 48.223V46.915H60.0347L55.8107 54.043H59.7227V55.315H53.5067L57.7187 48.223H53.8787Z" fill="white"/>
<path d="M62.389 46.915H63.8171V55.315H62.389V46.915Z" fill="white"/>
<path d="M73.0257 46.915H74.4177V55.735L68.2857 49.675V55.315H66.8937V46.495L73.0257 52.555V46.915Z" fill="white"/>
<path d="M77.4805 46.915H82.5925V48.163H78.8725V50.203H82.3525V51.427H78.8725V54.067H82.5925V55.315H77.4805V46.915Z" fill="white"/>
</svg>
